<mxfile host="Electron" agent="Mozilla/5.0 (X11; Linux x86_64) AppleWebKit/537.36 (KHTML, like Gecko) draw.io/26.2.2 Chrome/134.0.6998.178 Electron/35.1.2 Safari/537.36" version="26.2.2">
  <diagram name="페이지-1" id="OkMIisHmICN0CZDTkyGN">
    <mxGraphModel dx="1362" dy="843" grid="1" gridSize="10" guides="1" tooltips="1" connect="1" arrows="1" fold="1" page="1" pageScale="1" pageWidth="4681" pageHeight="3300" math="0" shadow="0">
      <root>
        <mxCell id="0" />
        <mxCell id="1" parent="0" />
        <mxCell id="kmLQkGGGuG63ZZ8Hv7U3-1" value="" style="edgeStyle=orthogonalEdgeStyle;rounded=0;orthogonalLoop=1;jettySize=auto;html=1;strokeColor=#457B9D;fontColor=#1D3557;fillColor=#A8DADC;fontSize=15;verticalAlign=middle;" edge="1" parent="1" source="kmLQkGGGuG63ZZ8Hv7U3-2" target="kmLQkGGGuG63ZZ8Hv7U3-5">
          <mxGeometry relative="1" as="geometry" />
        </mxCell>
        <mxCell id="kmLQkGGGuG63ZZ8Hv7U3-2" value="" style="verticalLabelPosition=bottom;verticalAlign=middle;html=1;shape=mxgraph.flowchart.on-page_reference;strokeColor=#457B9D;fontColor=#1D3557;fillColor=#A8DADC;fontSize=15;" vertex="1" parent="1">
          <mxGeometry x="180" y="40" width="40" height="40" as="geometry" />
        </mxCell>
        <mxCell id="kmLQkGGGuG63ZZ8Hv7U3-3" value="press_ac()" style="text;html=1;align=center;verticalAlign=middle;resizable=0;points=[];autosize=1;strokeColor=none;fillColor=none;fontColor=#1D3557;fontSize=15;" vertex="1" parent="1">
          <mxGeometry x="215" y="45" width="90" height="30" as="geometry" />
        </mxCell>
        <mxCell id="kmLQkGGGuG63ZZ8Hv7U3-4" value="" style="edgeStyle=orthogonalEdgeStyle;rounded=0;orthogonalLoop=1;jettySize=auto;html=1;strokeColor=#457B9D;fontColor=#1D3557;fillColor=#A8DADC;fontSize=15;verticalAlign=middle;" edge="1" parent="1" source="kmLQkGGGuG63ZZ8Hv7U3-5" target="kmLQkGGGuG63ZZ8Hv7U3-7">
          <mxGeometry relative="1" as="geometry" />
        </mxCell>
        <mxCell id="kmLQkGGGuG63ZZ8Hv7U3-5" value="self.tokens = []&lt;div&gt;self.current_input = &quot;&quot;&lt;/div&gt;&lt;div&gt;self.just_calculated = False&lt;/div&gt;" style="whiteSpace=wrap;html=1;verticalAlign=middle;fillColor=#A8DADC;strokeColor=#457B9D;fontColor=#1D3557;fontSize=15;" vertex="1" parent="1">
          <mxGeometry x="80" y="110" width="240" height="60" as="geometry" />
        </mxCell>
        <mxCell id="kmLQkGGGuG63ZZ8Hv7U3-6" value="" style="edgeStyle=orthogonalEdgeStyle;rounded=0;orthogonalLoop=1;jettySize=auto;html=1;strokeColor=#457B9D;fontColor=#1D3557;fillColor=#A8DADC;fontSize=15;verticalAlign=middle;" edge="1" parent="1" source="kmLQkGGGuG63ZZ8Hv7U3-7" target="kmLQkGGGuG63ZZ8Hv7U3-8">
          <mxGeometry relative="1" as="geometry" />
        </mxCell>
        <mxCell id="kmLQkGGGuG63ZZ8Hv7U3-7" value="self.update_display()" style="whiteSpace=wrap;html=1;verticalAlign=middle;fillColor=#A8DADC;strokeColor=#457B9D;fontColor=#1D3557;fontSize=15;" vertex="1" parent="1">
          <mxGeometry x="80" y="190" width="240" height="40" as="geometry" />
        </mxCell>
        <mxCell id="kmLQkGGGuG63ZZ8Hv7U3-8" value="" style="rounded=1;whiteSpace=wrap;html=1;verticalAlign=middle;fillColor=#A8DADC;strokeColor=#457B9D;fontColor=#1D3557;fontSize=15;" vertex="1" parent="1">
          <mxGeometry x="170" y="270" width="60" height="30" as="geometry" />
        </mxCell>
      </root>
    </mxGraphModel>
  </diagram>
</mxfile>
